<svg xmlns="http://www.w3.org/2000/svg" xmlns:xlink="http://www.w3.org/1999/xlink" width="64" height="64" viewBox="0 0 64 64">
  <defs>
    <linearGradient id="webstorm-b" x1="50%" x2="64.003%" y1="39.078%" y2="94.069%">
      <stop offset="0%" stop-color="#07C3F2"/>
      <stop offset="100%" stop-color="#087CFA"/>
    </linearGradient>
    <polygon id="webstorm-a" points="0 6.7 8.6 57.8 44 64 54.9 8.6 35.5 1.1 26.1 6.101 16 .1"/>
    <linearGradient id="webstorm-d" x1="52.808%" x2="61.826%" y1="6.804%" y2="27.345%">
      <stop offset="0%" stop-color="#FCF84A"/>
      <stop offset="100%" stop-color="#07C3F2"/>
    </linearGradient>
    <polygon id="webstorm-c" points="40.8 0 17.601 22.2 23.8 50.9 35.5 59 64 42.1 57 29 64 21.7 55.7 1.3"/>
    <linearGradient id="webstorm-f" x1="41.01%" x2="53.927%" y1="27.049%" y2="91.488%">
      <stop offset="0%" stop-color="#07C3F2"/>
      <stop offset="100%" stop-color="#087CFA"/>
    </linearGradient>
    <polygon id="webstorm-e" points="51.2 18.599 57 29 64 21.7 58.899 9.001"/>
    <linearGradient id="webstorm-h" x1="50%" x2="50%" y1="-11.618%" y2="60.589%">
      <stop offset="0%" stop-color="#A6A5A5"/>
      <stop offset="0%" stop-color="#989898" stop-opacity=".568"/>
      <stop offset="100%"/>
    </linearGradient>
    <polygon id="webstorm-g" points="0 40 40 40 40 0 0 0"/>
  </defs>
  <g fill="none" fill-rule="evenodd">
    <use fill="#07C3F2" xlink:href="#webstorm-a"/>
    <use fill="url(#webstorm-b)" xlink:href="#webstorm-a"/>
    <use fill="#07C3F2" xlink:href="#webstorm-c"/>
    <use fill="url(#webstorm-d)" xlink:href="#webstorm-c"/>
    <use fill="#07C3F2" xlink:href="#webstorm-e"/>
    <use fill="url(#webstorm-f)" xlink:href="#webstorm-e"/>
    <g transform="translate(12 12)">
      <use fill="#000" xlink:href="#webstorm-g"/>
      <use fill="url(#webstorm-h)" xlink:href="#webstorm-g"/>
      <path fill="#FFF" d="M23.4277,19.5254 L25.6307,16.8884 C27.1547,18.1454 28.7537,18.9444 30.6867,18.9444 C32.2137,18.9444 33.1327,18.3394 33.1327,17.3454 L33.1327,17.2974 C33.1327,16.3554 32.5517,15.8704 29.7197,15.1464 C26.3077,14.2754 24.1037,13.3284 24.1037,9.9674 L24.1037,9.9164 C24.1037,6.8454 26.5737,4.8094 30.0337,4.8094 C32.5037,4.8094 34.6087,5.5854 36.3257,6.9644 L34.3897,9.7724 C32.8897,8.7304 31.4137,8.1024 29.9867,8.1024 C28.5587,8.1024 27.8067,8.7544 27.8067,9.5784 L27.8067,9.6264 C27.8067,10.7394 28.5347,11.1054 31.4617,11.8524 C34.8987,12.7484 36.8347,13.9844 36.8347,16.9364 L36.8347,16.9834 C36.8347,20.3484 34.2697,22.2334 30.6147,22.2334 C28.0497,22.2334 25.4597,21.3384 23.4277,19.5254"/>
      <polygon fill="#FFF" points="20.265 5 17.798 14.679 14.971 5 12.161 5 9.334 14.679 6.867 5 3 5 7.738 22 10.851 22 13.566 12.398 16.247 22 19.398 22 24.131 5"/>
      <polygon fill="#FFF" points="4 35 19 35 19 32.5 4 32.5"/>
    </g>
  </g>
</svg>
